<svg width="21" height="21" viewBox="0 0 21 21" fill="none" xmlns="http://www.w3.org/2000/svg">
<path d="M12.4431 13.5937C13.2496 13.5942 14.0403 13.3699 14.7262 12.9457C15.4122 12.5216 15.9663 11.9146 16.3263 11.1928C16.6862 10.4711 16.8377 9.6633 16.7637 8.86019C16.6898 8.05709 16.3933 7.29052 15.9076 6.64666C15.4219 6.0028 14.7663 5.50716 14.0144 5.21544C13.2625 4.92373 12.4441 4.84751 11.6513 4.99534C10.8585 5.14318 10.1226 5.50921 9.52634 6.0523C8.93011 6.59539 8.49716 7.29401 8.27616 8.06965C7.88502 7.80134 7.43632 7.62869 6.96622 7.56562C6.49612 7.50254 6.01778 7.5508 5.56975 7.70651C5.12172 7.86222 4.71655 8.12101 4.38689 8.46204C4.05723 8.80306 3.81231 9.21678 3.67188 9.66982C3.53144 10.1229 3.49942 10.6026 3.57839 11.0703C3.65736 11.538 3.84512 11.9806 4.12652 12.3624C4.40792 12.7442 4.7751 13.0545 5.19846 13.2684C5.62181 13.4823 6.0895 13.5937 6.56381 13.5937H12.4431Z" fill="#B9D8E8"/>
<path d="M11.0839 13.4145C10.839 13.042 10.5655 12.6891 10.2658 12.359C9.96641 12.6891 9.69312 13.042 9.44847 13.4145C9.26987 13.6576 9.15513 13.9417 9.11475 14.2407C9.11475 14.546 9.23602 14.8388 9.45189 15.0546C9.66776 15.2705 9.96055 15.3918 10.2658 15.3918C10.5711 15.3918 10.8639 15.2705 11.0798 15.0546C11.2957 14.8388 11.4169 14.546 11.4169 14.2407C11.3769 13.9417 11.2624 13.6576 11.0839 13.4145Z" fill="#83B3CB"/>
</svg>
