<svg width="24" height="24" viewBox="0 0 24 24" fill="none" xmlns="http://www.w3.org/2000/svg">
<path d="M14.6991 17.1137C15.652 17.1144 16.5861 16.8493 17.3965 16.3483C18.207 15.8472 18.8617 15.1301 19.287 14.2774C19.7123 13.4248 19.8913 12.4704 19.804 11.5216C19.7168 10.5728 19.3666 9.66711 18.7929 8.90636C18.2192 8.14561 17.4447 7.55994 16.5564 7.21517C15.6681 6.8704 14.7013 6.78019 13.7646 6.95468C12.8279 7.12917 11.9584 7.56144 11.2539 8.20293C10.5493 8.84441 10.0377 9.66967 9.77635 10.586C9.31426 10.269 8.78417 10.065 8.2288 9.99051C7.67342 9.91599 7.10831 9.973 6.57901 10.157C6.04972 10.3409 5.57105 10.6466 5.18159 11.0495C4.79214 11.4524 4.50279 11.9412 4.33688 12.4764C4.17097 13.0116 4.13314 13.5783 4.22644 14.1309C4.31973 14.6834 4.54154 15.2063 4.87399 15.6574C5.20644 16.1084 5.64022 16.4751 6.14037 16.7278C6.64052 16.9804 7.19304 17.1121 7.75339 17.112L14.6991 17.1137Z" fill="#5490B9"/>
<path d="M14.6809 18.3844V15.4413" stroke="#83B3CB" stroke-linecap="round" stroke-linejoin="round"/>
<path d="M10.0308 20.7304V19.0542" stroke="#9FA6B7" stroke-linecap="round" stroke-linejoin="round"/>
<path d="M8.17456 17.0433V15.4413" stroke="#615C9A" stroke-linecap="round" stroke-linejoin="round"/>
<path d="M11.7793 16.4023V15.4413" stroke="#9FA6B7" stroke-linecap="round" stroke-linejoin="round"/>
</svg>
