<svg width="20" height="20" viewBox="0 0 20 20" fill="none" xmlns="http://www.w3.org/2000/svg">
<path d="M10.4445 3.20726C10.2222 2.9735 9.88891 2.91504 9.61112 3.14883C9.61112 3.14883 9.55557 3.14883 9.55557 3.20726C9.11112 3.79169 5 9.05164 5 11.7401C5 14.6623 7.22221 17 10 17C12.7778 17 15 14.6623 15 11.7401C15 9.05164 10.8889 3.79169 10.4445 3.20726Z" fill="url(#paint0_linear)"/>
<path d="M8.67847 13.3098L12.1914 9.79688L11.3648 8.97031L7.8519 12.4832L8.67847 13.3098Z" fill="white"/>
<path d="M8.24854 10.5713C8.57134 10.5713 8.83301 10.3096 8.83301 9.98682C8.83301 9.66402 8.57134 9.40234 8.24854 9.40234C7.92574 9.40234 7.66406 9.66402 7.66406 9.98682C7.66406 10.3096 7.92574 10.5713 8.24854 10.5713Z" fill="white"/>
<path d="M11.7564 12.9072C12.0791 12.9072 12.3408 12.6456 12.3408 12.3228C12.3408 12 12.0791 11.7383 11.7564 11.7383C11.4336 11.7383 11.1719 12 11.1719 12.3228C11.1719 12.6456 11.4336 12.9072 11.7564 12.9072Z" fill="white"/>
<defs>
<linearGradient id="paint0_linear" x1="6.08325" y1="15.0717" x2="14.2993" y2="7.2645" gradientUnits="userSpaceOnUse">
<stop stop-color="#34CDFA"/>
<stop offset="1" stop-color="#D9F0F1"/>
</linearGradient>
</defs>
</svg>
